<?xml version="1.0" standalone="no"?>
<!DOCTYPE svg PUBLIC "-//W3C//DTD SVG 20010904//EN"
 "http://www.w3.org/TR/2001/REC-SVG-20010904/DTD/svg10.dtd">
<svg version="1.0" xmlns="http://www.w3.org/2000/svg"
 width="972.000000pt" height="1280.000000pt" viewBox="0 0 972.000000 1280.000000"
 preserveAspectRatio="xMidYMid meet">
<metadata>
Created by potrace 1.15, written by Peter Selinger 2001-2017
</metadata>
<g transform="translate(0.000000,1280.000000) scale(0.100000,-0.100000)"
fill="#607d8b" stroke="none">
<path d="M1585 12789 c-145 -4 -212 -11 -285 -28 -52 -12 -99 -26 -105 -31 -5
-4 -30 -16 -55 -26 -81 -32 -132 -79 -236 -217 -18 -23 -68 -112 -112 -197
-87 -169 -136 -312 -153 -455 -5 -44 -14 -93 -19 -109 -15 -44 -12 -244 4
-296 26 -85 46 -108 124 -145 47 -23 75 -43 81 -57 26 -69 30 -95 21 -135 -11
-48 -6 -67 32 -112 28 -32 122 -73 163 -70 11 1 26 1 32 0 16 -1 58 -85 67
-131 9 -51 43 -99 116 -165 81 -73 89 -87 90 -152 0 -41 8 -67 36 -118 20 -36
40 -67 45 -71 20 -12 6 -34 -42 -63 -56 -35 -88 -90 -89 -152 0 -20 -7 -56
-15 -79 -21 -59 -31 -257 -17 -323 7 -28 16 -135 20 -237 9 -205 15 -225 103
-372 22 -37 47 -88 55 -113 7 -26 42 -86 77 -133 75 -104 207 -344 235 -427
11 -33 43 -118 71 -188 28 -71 62 -166 75 -210 13 -45 44 -125 69 -177 97
-205 137 -297 137 -316 0 -11 11 -53 25 -94 28 -83 24 -96 -34 -105 -47 -8
-207 -73 -341 -139 -87 -42 -121 -66 -201 -141 -145 -136 -228 -205 -309 -257
-30 -19 -84 -64 -120 -99 -88 -86 -266 -293 -293 -340 -19 -32 -41 -47 -146
-99 -97 -48 -138 -75 -190 -124 -36 -35 -91 -79 -121 -98 -74 -47 -240 -187
-278 -235 -35 -45 -52 -81 -81 -178 -44 -145 -20 -261 85 -409 19 -27 37 -60
40 -75 3 -14 20 -62 38 -106 27 -67 38 -83 67 -96 49 -24 60 -40 129 -189 71
-154 108 -200 213 -262 69 -42 167 -145 167 -176 0 -30 58 -140 122 -233 122
-179 495 -550 607 -605 25 -12 78 -50 116 -83 39 -34 97 -78 130 -98 69 -42
221 -177 540 -479 83 -78 207 -189 276 -247 198 -166 236 -218 302 -417 70
-208 72 -238 50 -605 -10 -187 -11 -193 -50 -290 -25 -64 -52 -113 -74 -136
-32 -33 -51 -63 -62 -100 -3 -9 -25 -21 -50 -28 -43 -10 -46 -14 -62 -62 -37
-109 4 -251 79 -283 34 -14 39 -22 51 -83 7 -35 50 -78 127 -125 67 -41 71
-52 57 -151 -19 -128 -31 -120 189 -113 103 4 422 11 709 15 287 5 526 12 531
15 17 10 1014 8 1192 -3 96 -5 285 -13 420 -16 135 -3 263 -8 285 -10 39 -5
627 -20 695 -18 19 1 73 -3 120 -8 47 -5 209 -11 360 -14 151 -3 318 -7 370
-10 52 -3 185 -7 295 -9 110 -3 256 -9 325 -15 289 -25 1239 -58 1262 -44 13
7 8 85 -7 128 -21 59 -19 108 7 141 16 19 25 50 31 98 15 134 18 270 7 317
-19 77 -72 149 -140 190 -33 20 -68 43 -78 52 -9 9 -36 29 -59 44 -39 27 -171
170 -223 243 -84 118 -91 134 -86 176 6 45 -12 113 -49 189 -13 28 -28 68 -34
90 -6 23 -26 59 -46 82 -49 58 -47 89 12 171 58 82 59 111 7 262 -19 58 -39
131 -44 164 -13 86 -82 215 -158 294 -81 86 -100 143 -112 337 -10 154 -17
192 -66 373 -49 180 -68 330 -59 477 4 75 2 138 -5 168 -5 26 -19 108 -30 181
-20 140 -27 166 -41 166 -17 0 -32 46 -35 104 -2 41 -9 67 -23 87 -12 15 -21
38 -21 50 0 21 -42 111 -86 184 -13 22 -24 48 -24 57 0 33 -72 99 -152 139
-95 48 -160 65 -293 79 -427 43 -487 56 -665 145 -93 47 -216 87 -322 106 -63
12 -68 14 -68 39 0 14 8 50 19 80 10 30 23 93 29 140 6 47 16 123 21 170 9 69
21 106 65 200 71 149 86 193 86 260 1 30 5 75 10 100 11 54 -4 266 -26 358 -8
34 -19 119 -24 188 -5 70 -18 154 -30 191 -12 38 -20 93 -20 133 0 66 -8 104
-36 166 -25 57 -43 143 -54 266 -6 68 -18 164 -26 214 -8 50 -14 107 -14 126
0 19 -11 56 -25 82 -14 26 -32 77 -41 114 -8 37 -21 92 -29 122 -8 35 -13 114
-13 215 0 143 3 172 29 275 47 185 39 256 -46 400 -62 105 -95 198 -105 290
-9 89 -42 187 -91 270 -15 25 -45 81 -66 125 -43 87 -87 160 -102 169 -5 4
-26 37 -47 74 -20 37 -48 81 -60 98 -47 61 -87 179 -109 319 -4 22 -20 63 -36
92 -16 28 -36 77 -44 108 -30 113 -118 249 -256 391 -44 45 -79 88 -79 97 0 8
-22 42 -50 74 -27 32 -50 63 -50 68 0 24 -163 201 -204 222 -23 12 -48 29 -55
37 -8 9 -22 16 -32 16 -11 0 -43 14 -72 30 -30 17 -57 27 -60 23 -4 -3 -16 6
-28 21 -12 15 -31 32 -43 37 -42 18 -88 50 -109 75 -19 21 -36 27 -120 37 -76
10 -102 17 -113 31 -12 17 -23 18 -102 13 -49 -4 -135 -15 -193 -26 -64 -12
-175 -22 -289 -26 -102 -3 -232 -13 -290 -22 -62 -9 -177 -16 -280 -16 -166
-1 -179 0 -247 25 -40 15 -80 32 -90 37 -10 6 -58 28 -106 49 -61 27 -95 49
-112 72 -28 38 -184 146 -224 155 -15 3 -53 28 -83 55 -63 56 -264 296 -290
344 -22 43 -189 188 -264 232 -33 18 -81 38 -109 43 -65 14 -254 17 -490 10z
m600 -7958 c210 -55 356 -90 405 -97 44 -5 61 -13 85 -39 42 -45 133 -105 159
-105 12 0 38 -14 59 -31 20 -17 63 -41 95 -53 139 -56 228 -106 280 -158 75
-76 135 -160 189 -263 25 -49 65 -121 88 -160 63 -105 98 -177 154 -315 48
-121 119 -262 194 -385 21 -33 37 -64 37 -69 0 -5 33 -77 74 -160 41 -83 84
-180 96 -216 12 -36 39 -91 61 -122 21 -32 39 -63 39 -68 0 -6 14 -40 31 -76
38 -82 36 -115 -8 -126 -44 -12 -48 -24 -17 -53 36 -33 17 -32 -77 4 -105 41
-161 78 -232 159 -34 38 -80 84 -102 103 -177 148 -337 323 -458 501 -26 39
-87 116 -135 172 -141 163 -162 196 -162 251 0 50 1 47 -106 215 -78 123 -102
172 -133 270 -38 116 -109 258 -179 355 -60 82 -226 240 -301 285 -176 106
-238 157 -228 184 8 20 7 20 92 -3z"/>
</g>
</svg>
